# xmcd CD database file
#
# Track frame offsets:
#	150
#	8260
#	20127
#	38300
#	48857
#	60782
#	70432
#	85690
#	97877
#	103835
#	112277
#	130880
#	139700
#	149962
#	160632
#	174077
#	183725
#	199270
#
# Disc length: 2748 seconds
#
# Revision: 2
# Processed by: cddbd v1.5.2PL0 Copyright (c) Steve Scherf et al.
# Submitted via: CDex 1.51
#
DISCID=ee0aba12
DTITLE=Flying W Wranglers - The Stringsmiths
DYEAR=1998
DGENRE=Country
TTITLE0=Maggie
TTITLE1=Steele Guitar Rag
TTITLE2=White Cliffs Of Dover
TTITLE3=Fort Worth Rag
TTITLE4=Faded Love - Maiden's Prayer
TTITLE5=Dixie Breakdown
TTITLE6=Midnight On The Water
TTITLE7=Minor Swing
TTITLE8=Beaumont Rag
TTITLE9=Panhandle Rag
TTITLE10=Tammy
TTITLE11=Whistlin' Rufus
TTITLE12=Red Wing
TTITLE13=Laughin' Boy
TTITLE14=Old Rugged Cross
TTITLE15=Stars and Stripes Forever
TTITLE16=Greensleeves
TTITLE17=Sugarfoot Rag
EXTD=YEAR: 1998
EXTT0=
EXTT1=
EXTT2=
EXTT3=
EXTT4=
EXTT5=
EXTT6=
EXTT7=
EXTT8=
EXTT9=
EXTT10=
EXTT11=
EXTT12=
EXTT13=
EXTT14=
EXTT15=
EXTT16=
EXTT17=
PLAYORDER=
